# xmcd
#
# Track frame offsets:
#	150
#	13864
#	27741
#	43323
#	59042
#	72949
#	86933
#	104930
#	120264
#	136254
#	154365
#	167715
#	185125
#	199264
#	215717
#	229846
#
# Disc length: 3258 seconds
#
# Revision: 1
# Processed by: cddbd v1.5.2PL0 Copyright (c) Steve Scherf et al.
# Submitted via: audiograbber 1.83.01
#
DISCID=040cb810
DTITLE=Stef Ekkel  - Dit ben ik  cd2
DYEAR=2010
DGENRE=Hollands
TTITLE0=Stef Ekkel - La Paloma
TTITLE1=Stef Ekkel and Johnny Hoes - De smokkelaar
TTITLE2=Stef Ekkel - Op 'n terrasje
TTITLE3=Stef Ekkel - Jij wil vrij zijn
TTITLE4=Stef Ekkel - Laat de glazen nu maar klinken
TTITLE5=Stef Ekkel - Ik heb je sleutel weggesmeten
TTITLE6=Stef Ekkel - Shanghai
TTITLE7=Stef Ekkel - 'n Koffer vol met dromen
TTITLE8=Stef Ekkel - Sierra madre
TTITLE9=Stef Ekkel - Geniet van het leven
TTITLE10=Stef Ekkel - Donna Carmela Gonzalez
TTITLE11=Stef Ekkel - Vlieg als een vogel zo vrij
TTITLE12=Stef Ekkel - Huil maar niet m'n kleine jongen
TTITLE13=Stef Ekkel - Daar heb je vrienden voor
TTITLE14=Stef Ekkel - Het is winter
TTITLE15=Stef Ekkel - Ik wijs je de weg
EXTD=
EXTT0=
EXTT1=
EXTT2=
EXTT3=
EXTT4=
EXTT5=
EXTT6=
EXTT7=
EXTT8=
EXTT9=
EXTT10=
EXTT11=
EXTT12=
EXTT13=
EXTT14=
EXTT15=
PLAYORDER=
